<?xml version="1.0" encoding="utf-8"?>
<!-- Generator: Adobe Illustrator 23.0.1, SVG Export Plug-In . SVG Version: 6.00 Build 0)  -->
<svg version="1.1" id="Layer_1" xmlns="http://www.w3.org/2000/svg" xmlns:xlink="http://www.w3.org/1999/xlink" x="0px" y="0px"
	 viewBox="0 0 1000 686.5" style="enable-background:new 0 0 1000 686.5;" xml:space="preserve">
<style type="text/css">
	.st0{fill:#605D5D;stroke:#605B5B;stroke-width:0.75;stroke-linecap:square;stroke-miterlimit:10;}
	.st1{fill:#FFFF00;stroke:#FFFF00;stroke-linecap:square;stroke-miterlimit:10;}
	.st2{fill:#999999;stroke:#808080;stroke-linecap:square;stroke-miterlimit:10;}
	.st3{fill:#E55015;stroke:#FF0000;stroke-linecap:square;stroke-miterlimit:10;}
</style>
<g>
	<g>
		<path class="st0" d="M127.6,266.5V414c0,45.9-18.5,69.9-56.3,69.9c-41.8,0-54.5-28.6-54.5-69.7V266.8c0-43.1,17.9-68.3,56-68.3
			C113.4,198.5,127.6,229.2,127.6,266.5z M37.8,267.1v147.5c0,36.9,13.5,50.5,34.5,50.5c21.9,0,34.2-13.4,34.2-52.3V267.4
			c0-34.7-12.5-50.2-34.6-50.2C48.6,217.2,37.8,232.1,37.8,267.1z"/>
		<path class="st0" d="M238.2,201.9h44.5c61.2,0,64.1,41.7,64.1,80.8v112.2c0,42.9-6.1,85.5-67.2,85.5h-41.4L238.2,201.9
			L238.2,201.9z M258.8,462.1h19c37.7,0,48.1-19.7,48.1-61.4V279c0-36.7-6.6-58.8-47.5-58.8h-19.6L258.8,462.1L258.8,462.1z"/>
		<path class="st0" d="M478.2,346.5v133.8h-20.5V201.9H499c41.7,0,59.3,18.8,59.3,62v14.2c0,34.4-10.4,53.1-28.5,59
			c18.7,5.8,26.3,20.2,26.3,57.1c0,24-0.4,68.1,2.9,86.1h-20.3c-3.4-17.7-2.9-65.3-2.9-84.3c0-37.5-5.6-49.5-35.2-49.5L478.2,346.5
			L478.2,346.5z M478.2,328.5h24.1c29.2,0,35.1-20,35.1-49.3v-14.4c0-28.1-8.7-44.8-39.2-44.8h-20L478.2,328.5L478.2,328.5z"/>
		<path class="st0" d="M688.4,201.9v278.4h-20.5V201.9H688.4z"/>
		<path class="st0" d="M909.8,266.5V414c0,45.9-18.5,69.9-56.3,69.9c-41.8,0-54.5-28.6-54.5-69.7V266.8c0-43.1,17.9-68.3,56-68.3
			C895.7,198.5,909.8,229.2,909.8,266.5z M820.1,267.1v147.5c0,36.9,13.5,50.5,34.5,50.5c21.9,0,34.2-13.4,34.2-52.3V267.4
			c0-34.7-12.5-50.2-34.6-50.2C830.9,217.2,820.1,232.1,820.1,267.1z"/>
	</g>
</g>
<ellipse class="st1" cx="700.1" cy="66.5" rx="58.8" ry="58.5"/>
<ellipse class="st2" cx="476.6" cy="66.5" rx="58.8" ry="58.5"/>
<circle class="st3" cx="257.4" cy="66.5" r="58.5"/>
<g>
	<g>
		<path d="M179,653c0,0-1.9-1.1-5.7-3.3c-3.8-2.2-6.7-5.3-8.8-9.3c-2.1-4-3.1-8.7-3.1-14v-19.6c0-5.3,1-10,3.1-14
			c2.1-4,5-7.2,8.8-9.4c3.8-2.2,8.1-3.3,13.1-3.3c4.1,0,7.9,0.9,11.4,2.6s6.3,4.2,8.7,7.5s3.9,6.9,4.7,11.2h-10.3
			c-0.6-2.2-1.7-4.2-3.1-6s-3.2-3.1-5.2-4.1c-2-1-4-1.4-6.1-1.4c-2.9,0-5.5,0.7-7.7,2.1c-2.2,1.4-3.9,3.4-5.1,5.9s-1.8,5.5-1.8,8.9
			v19.6c0,3.3,0.6,6.3,1.8,8.8s2.9,4.5,5.1,5.9c2.2,1.4,4.8,2.1,7.7,2.1c2.1,0,4.2-0.4,6.1-1.3c2-0.9,3.7-2.2,5.1-3.9
			c1.5-1.7,2.5-3.8,3.1-6.2h10.3c-0.8,4.2-2.4,8-4.7,11.2c-2.3,3.2-5.2,5.7-8.7,7.5c-3.5,1.8-7.2,2.6-11.3,2.6
			C181.5,653,179,653,179,653z"/>
		<path d="M235.7,580.8h10.1v71.5h-10.1V580.8z M240.7,642.7h41.1v9.5h-41.1C240.7,652.3,240.7,642.7,240.7,642.7z"/>
		<path d="M314.3,649.7c-3.8-2.2-6.8-5.3-8.9-9.3c-2.1-4-3.1-8.6-3.1-13.8v-20.3c0-5.2,1-9.9,3.1-13.8c2.1-4,5.1-7.1,8.9-9.2
			c3.8-2.2,8.2-3.3,13.2-3.3c5,0,9.4,1.1,13.2,3.3s6.8,5.3,8.9,9.2s3.1,8.6,3.1,13.8v20.3c0,5.3-1.1,9.9-3.1,13.8
			c-2.1,4-5,7.1-8.9,9.3s-8.2,3.3-13.2,3.3C322.6,653,318.2,651.9,314.3,649.7z M335.4,641.1c2.3-1.3,4-3.2,5.2-5.7
			c1.2-2.4,1.9-5.3,1.9-8.5V606c0-3.2-0.6-6-1.9-8.5c-1.2-2.4-3-4.3-5.2-5.7c-2.3-1.3-4.9-2-7.8-2s-5.6,0.7-7.8,2
			c-2.3,1.3-4,3.2-5.2,5.7c-1.2,2.4-1.9,5.3-1.9,8.5v21c0,3.2,0.6,6,1.9,8.5c1.2,2.4,3,4.3,5.2,5.7c2.3,1.3,4.9,2,7.8,2
			C330.5,643.1,333.1,642.4,335.4,641.1z"/>
		<path d="M369.4,580.8H420v9.5h-50.7V580.8z M389.7,586.6h10.1v65.7h-10.1V586.6L389.7,586.6z"/>
		<path d="M438.1,580.8h10.1v71.5h-10.1V580.8z M444.3,612.3h39.9v9.5h-39.9V612.3z M478.9,580.8H489v71.5h-10.1V580.8z"/>
		<path d="M526.9,652.3h-10.1v-71.5h10.1V652.3z"/>
		<path d="M554.9,580.8h9.1l35.1,55.3l-1.2,1.3v-56.5h10v71.5h-9.2l-35-54.4l1.2-1.3v55.7h-10V580.8L554.9,580.8z"/>
		<path d="M684.9,613.8v12.5c0,5.3-1,10-3.1,14s-5,7.2-8.8,9.4c-3.8,2.2-8.2,3.3-13.2,3.3c-5.1,0-9.5-1-13.4-3.1
			c-3.8-2.1-6.8-5-8.9-8.8c-2.1-3.8-3.2-8.2-3.2-13.2v-21.1c0-5.3,1-10,3.1-14c2.1-4,5-7.2,8.8-9.4s8.2-3.3,13.2-3.3
			c4.1,0,7.9,0.9,11.4,2.6c3.5,1.8,6.4,4.2,8.7,7.5c2.3,3.2,3.9,6.9,4.7,11.2h-10.9c-0.6-2.4-1.6-4.5-3-6.2c-1.4-1.7-3.1-3-5-3.9
			c-1.9-0.9-3.9-1.3-5.9-1.3c-3,0-5.6,0.7-7.8,2.1s-4,3.4-5.2,5.9s-1.8,5.5-1.8,8.9v21.1c0,3.1,0.6,5.8,1.9,8.1s3,4.1,5.3,5.4
			s4.9,1.9,7.9,1.9c3,0,5.6-0.7,7.8-2s4-3.3,5.2-5.8c1.2-2.5,1.8-5.5,1.8-9v-3.1h-14.6v-9.6H684.9z"/>
		<path d="M727.8,653c0,0-1.5-0.3-4.6-1c-3.1-0.7-6-1.6-8.7-3c-2.7-1.3-5.2-3-7.5-4.9l6.3-7.7c2.7,2.4,5.8,4.1,9,5.3
			s6.9,1.8,10.7,1.8c5.2,0,9.2-1,12.1-2.9c2.9-1.9,4.3-4.6,4.3-8.1v0c0-2.5-0.7-4.5-2-5.9s-3-2.5-5-3.3c-2.1-0.7-4.7-1.3-8-1.9
			c-0.1,0-0.2,0-0.3,0c-0.1,0-0.2,0-0.3,0l-0.7-0.2c-4.8-0.8-8.7-1.8-11.7-2.8s-5.6-2.9-7.7-5.7c-2.1-2.7-3.2-6.6-3.2-11.7v0
			c0-4.4,1-8.2,3-11.3s4.9-5.5,8.7-7.2c3.8-1.6,8.4-2.5,13.8-2.5c2.6,0,5.1,0.3,7.6,0.8c2.5,0.6,4.9,1.4,7.4,2.5
			c2.4,1.1,4.8,2.5,7.1,4.2l-5.7,8c-2.7-2-5.5-3.5-8.2-4.5s-5.4-1.5-8.2-1.5c-4.9,0-8.7,1-11.4,2.9c-2.7,2-4.1,4.7-4.1,8.3v0
			c0,2.5,0.7,4.4,2.1,5.8c1.4,1.4,3.2,2.5,5.2,3.1c2.1,0.7,5,1.4,8.7,2.1c0.1,0,0.3,0.1,0.4,0.1c0.1,0,0.2,0,0.4,0.1
			c0.2,0,0.3,0.1,0.5,0.1s0.4,0.1,0.5,0.1c4.3,0.9,8,1.9,10.9,3.2s5.3,3.2,7.3,5.9s2.9,6.4,2.9,11.1v0.1c0,4.4-1,8.1-3.1,11.2
			s-5.1,5.5-9,7.1s-8.7,2.4-14.3,2.4C729.5,653,727.8,653,727.8,653z"/>
	</g>
</g>
</svg>
