<?xml version="1.0" encoding="utf-8"?>
<!-- Generator: Adobe Illustrator 23.0.1, SVG Export Plug-In . SVG Version: 6.00 Build 0)  -->
<svg version="1.1" id="Layer_1" xmlns="http://www.w3.org/2000/svg" xmlns:xlink="http://www.w3.org/1999/xlink" x="0px" y="0px"
	 viewBox="0 0 1000 686.53" style="enable-background:new 0 0 1000 686.53;" xml:space="preserve">
<style type="text/css">
	.st0{fill:#605D5D;stroke:#605B5B;stroke-width:0.75;stroke-linecap:square;stroke-miterlimit:10;}
	.st1{fill:#FFFF00;stroke:#FFFF00;stroke-linecap:square;stroke-miterlimit:10;}
	.st2{fill:#999999;stroke:#808080;stroke-linecap:square;stroke-miterlimit:10;}
	.st3{fill:#E55015;stroke:#FF0000;stroke-linecap:square;stroke-miterlimit:10;}
</style>
<g>
	<g>
		<path class="st0" d="M127.59,266.53v147.42c0,45.85-18.53,69.88-56.27,69.88c-41.84,0-54.48-28.57-54.48-69.74V266.81
			c0-43.12,17.93-68.34,56-68.34C113.44,198.47,127.59,229.16,127.59,266.53z M37.85,267.12v147.54c0,36.94,13.52,50.51,34.5,50.51
			c21.89,0,34.22-13.44,34.22-52.32V267.41c0-34.7-12.54-50.22-34.57-50.22C48.62,217.18,37.85,232.15,37.85,267.12z"/>
		<path class="st0" d="M238.23,201.93h44.46c61.16,0,64.13,41.71,64.13,80.78v112.17c0,42.86-6.13,85.48-67.22,85.48h-41.37V201.93z
			 M258.76,462.1h18.96c37.7,0,48.08-19.67,48.08-61.4V279.03c0-36.71-6.65-58.78-47.45-58.78h-19.6V462.1z"/>
		<path class="st0" d="M478.19,346.55v133.8h-20.53V201.93h41.37c41.66,0,59.25,18.77,59.25,61.99v14.2
			c0,34.38-10.41,53.07-28.48,58.98c18.73,5.82,26.25,20.22,26.25,57.1c0,24.04-0.42,68.07,2.86,86.14h-20.26
			c-3.42-17.72-2.93-65.25-2.93-84.27c0-37.54-5.59-49.53-35.16-49.53H478.19z M478.19,328.5h24.06c29.16,0,35.14-19.97,35.14-49.34
			v-14.35c0-28.12-8.69-44.83-39.17-44.83h-20.03V328.5z"/>
		<path class="st0" d="M688.41,201.93v278.42h-20.53V201.93H688.41z"/>
		<path class="st0" d="M909.84,266.53v147.42c0,45.85-18.53,69.88-56.27,69.88c-41.84,0-54.48-28.57-54.48-69.74V266.81
			c0-43.12,17.93-68.34,56-68.34C895.7,198.47,909.84,229.16,909.84,266.53z M820.11,267.12v147.54c0,36.94,13.51,50.51,34.5,50.51
			c21.89,0,34.22-13.44,34.22-52.32V267.41c0-34.7-12.54-50.22-34.57-50.22C830.88,217.18,820.11,232.15,820.11,267.12z"/>
	</g>
</g>
<ellipse class="st1" cx="545.68" cy="58.54" rx="58.82" ry="58.54"/>
<ellipse class="st2" cx="322.18" cy="58.54" rx="58.82" ry="58.54"/>
<circle class="st3" cx="102.95" cy="58.54" r="58.54"/>
<g>
	<g>
		<path d="M41.79,657.26c0,0-1.89-1.1-5.66-3.29c-3.77-2.2-6.69-5.31-8.77-9.34c-2.07-4.03-3.11-8.7-3.11-14.01v-19.62
			c0-5.31,1.04-9.98,3.11-14.01c2.08-4.03,5-7.15,8.77-9.37c3.77-2.21,8.14-3.32,13.12-3.32c4.12,0,7.9,0.88,11.36,2.63
			c3.46,1.75,6.35,4.24,8.67,7.45c2.32,3.21,3.89,6.93,4.72,11.16H63.68c-0.63-2.23-1.67-4.22-3.14-5.97
			c-1.47-1.75-3.19-3.11-5.16-4.06c-1.98-0.95-4.02-1.43-6.13-1.43c-2.93,0-5.5,0.71-7.71,2.12c-2.21,1.41-3.92,3.38-5.14,5.92
			c-1.22,2.54-1.83,5.5-1.83,8.88v19.62c0,3.34,0.61,6.29,1.83,8.85c1.22,2.56,2.93,4.53,5.14,5.93c2.21,1.39,4.78,2.09,7.71,2.09
			c2.14,0,4.19-0.44,6.15-1.33c1.96-0.88,3.67-2.2,5.14-3.93c1.47-1.74,2.51-3.8,3.14-6.2H74c-0.82,4.23-2.4,7.95-4.74,11.16
			c-2.34,3.21-5.24,5.7-8.7,7.45c-3.46,1.75-7.23,2.63-11.31,2.63C44.28,657.26,41.79,657.26,41.79,657.26z"/>
		<path d="M98.45,585.02h10.08v71.5H98.45V585.02z M103.49,646.98h41.11v9.54h-41.11V646.98z"/>
		<path d="M177.09,653.99c-3.82-2.18-6.78-5.26-8.87-9.25c-2.09-3.98-3.14-8.6-3.14-13.84v-20.26c0-5.24,1.04-9.86,3.14-13.84
			c2.09-3.98,5.05-7.06,8.87-9.24c3.82-2.18,8.23-3.27,13.24-3.27c5.01,0,9.42,1.09,13.24,3.27c3.82,2.18,6.78,5.26,8.87,9.24
			c2.09,3.98,3.14,8.6,3.14,13.84v20.26c0,5.25-1.05,9.86-3.14,13.84c-2.09,3.98-5.05,7.07-8.87,9.25
			c-3.82,2.18-8.23,3.27-13.24,3.27C185.33,657.26,180.92,656.17,177.09,653.99z M198.17,645.38c2.26-1.33,4-3.21,5.24-5.66
			c1.24-2.44,1.85-5.27,1.85-8.48V610.3c0-3.21-0.62-6.04-1.85-8.48c-1.24-2.44-2.98-4.33-5.24-5.66c-2.26-1.33-4.87-1.99-7.83-1.99
			c-2.96,0-5.58,0.66-7.83,1.99c-2.26,1.33-4,3.21-5.24,5.66c-1.24,2.44-1.85,5.27-1.85,8.48v20.95c0,3.21,0.62,6.04,1.85,8.48
			c1.24,2.44,2.98,4.33,5.24,5.66c2.26,1.33,4.87,1.99,7.83,1.99C193.3,647.37,195.91,646.71,198.17,645.38z"/>
		<path d="M232.12,585.02h50.69v9.54h-50.69V585.02z M252.43,590.87h10.08v65.65h-10.08V590.87z"/>
		<path d="M300.84,585.02h10.08v71.5h-10.08V585.02z M307.11,616.54h39.87v9.54h-39.87V616.54z M341.65,585.02h10.08v71.5h-10.08
			V585.02z"/>
		<path d="M389.71,656.52h-10.08v-71.5h10.08V656.52z"/>
		<path d="M417.62,585.02h9.14l35.13,55.27l-1.19,1.28v-56.55h9.98v71.45h-9.24l-35.03-54.43l1.19-1.28v55.71h-9.98V585.02z"/>
		<path d="M547.7,618.02v12.49c0,5.31-1.04,9.99-3.11,14.04c-2.07,4.05-5.01,7.18-8.82,9.39c-3.8,2.21-8.21,3.32-13.22,3.32
			c-5.07,0-9.53-1.04-13.36-3.12c-3.84-2.08-6.81-5.02-8.92-8.83c-2.11-3.8-3.16-8.21-3.16-13.23v-21.09
			c0-5.31,1.04-9.98,3.11-14.01c2.08-4.03,5.02-7.15,8.82-9.37s8.21-3.32,13.22-3.32c4.12,0,7.91,0.88,11.39,2.63
			c3.47,1.75,6.38,4.24,8.72,7.45c2.34,3.21,3.92,6.93,4.74,11.16h-10.92c-0.59-2.39-1.6-4.45-3.01-6.17
			c-1.42-1.72-3.08-3.03-4.99-3.93c-1.91-0.9-3.89-1.35-5.93-1.35c-2.96,0-5.57,0.71-7.81,2.12c-2.24,1.41-3.97,3.38-5.19,5.92
			c-1.22,2.54-1.83,5.5-1.83,8.88v21.09c0,3.08,0.63,5.78,1.88,8.09c1.25,2.31,3.02,4.11,5.31,5.38s4.93,1.92,7.93,1.92
			c2.96,0,5.57-0.66,7.81-1.99c2.24-1.33,3.97-3.25,5.19-5.78c1.22-2.52,1.83-5.52,1.83-9v-3.1h-14.57v-9.59H547.7z"/>
		<path d="M590.52,657.26c0,0-1.55-0.33-4.64-0.98c-3.1-0.66-5.99-1.64-8.67-2.95c-2.69-1.31-5.2-2.95-7.54-4.92l6.28-7.67
			c2.73,2.36,5.75,4.13,9.04,5.31c3.29,1.18,6.87,1.77,10.72,1.77c5.2,0,9.24-0.96,12.1-2.88c2.87-1.92,4.3-4.63,4.3-8.14v-0.05
			c0-2.49-0.65-4.47-1.95-5.93c-1.3-1.46-2.98-2.54-5.04-3.25c-2.06-0.7-4.72-1.35-7.98-1.94c-0.1-0.03-0.21-0.05-0.32-0.05
			c-0.12,0-0.22-0.02-0.32-0.05l-0.74-0.15c-4.81-0.82-8.72-1.75-11.73-2.78c-3.01-1.03-5.59-2.92-7.73-5.65
			c-2.14-2.74-3.21-6.63-3.21-11.68v-0.05c0-4.43,1-8.2,2.99-11.33c1.99-3.13,4.9-5.51,8.72-7.15c3.82-1.64,8.42-2.46,13.78-2.46
			c2.57,0,5.1,0.28,7.58,0.84c2.49,0.56,4.94,1.39,7.36,2.48c2.42,1.1,4.8,2.48,7.14,4.16l-5.73,7.97c-2.73-2-5.46-3.5-8.18-4.5
			c-2.72-1-5.44-1.5-8.18-1.5c-4.91,0-8.72,0.98-11.44,2.93c-2.72,1.95-4.08,4.71-4.08,8.29v0.05c0,2.46,0.7,4.39,2.1,5.8
			c1.4,1.41,3.15,2.45,5.24,3.12c2.09,0.67,5,1.37,8.72,2.09c0.13,0.03,0.25,0.06,0.37,0.07c0.12,0.02,0.24,0.04,0.37,0.07
			c0.17,0.03,0.35,0.07,0.54,0.1s0.38,0.07,0.54,0.1c4.35,0.89,7.98,1.93,10.89,3.15s5.35,3.17,7.31,5.88
			c1.96,2.71,2.94,6.4,2.94,11.09v0.1c0,4.36-1.04,8.09-3.11,11.19s-5.08,5.46-9.02,7.08c-3.94,1.62-8.69,2.43-14.25,2.43
			C592.25,657.26,590.52,657.26,590.52,657.26z"/>
	</g>
</g>
</svg>
